<?xml version="1.0" encoding="UTF-8" standalone="no"?>
<!-- Created with Inkscape (http://www.inkscape.org/) -->

<svg
   xmlns:dc="http://purl.org/dc/elements/1.1/"
   xmlns:cc="http://creativecommons.org/ns#"
   xmlns:rdf="http://www.w3.org/1999/02/22-rdf-syntax-ns#"
   xmlns:svg="http://www.w3.org/2000/svg"
   xmlns="http://www.w3.org/2000/svg"
   xmlns:sodipodi="http://sodipodi.sourceforge.net/DTD/sodipodi-0.dtd"
   xmlns:inkscape="http://www.inkscape.org/namespaces/inkscape"
   width="25"
   height="25"
   id="svg2493"
   sodipodi:version="0.32"
   inkscape:version="0.92.3 (2405546, 2018-03-11)"
   sodipodi:docname="astropanel.svg"
   inkscape:output_extension="org.inkscape.output.svg.inkscape"
   version="1.1"
   inkscape:export-filename="/home/akarsh/devel/kde-devel/src/kstars/kstars/icons/64-actions-kstars_fov.png"
   inkscape:export-xdpi="90"
   inkscape:export-ydpi="90">
  <defs
     id="defs2495">
    <linearGradient
       id="linearGradient3764">
      <stop
         style="stop-color:#ffffb7;stop-opacity:1;"
         offset="0"
         id="stop3766" />
      <stop
         id="stop3772"
         offset="0.5"
         style="stop-color:#f4e55b;stop-opacity:1;" />
      <stop
         style="stop-color:#ea9a00;stop-opacity:1;"
         offset="1"
         id="stop3768" />
    </linearGradient>
  </defs>
  <sodipodi:namedview
     id="base"
     pagecolor="#ffffff"
     bordercolor="#666666"
     borderopacity="1.0"
     inkscape:pageopacity="0.0"
     inkscape:pageshadow="2"
     inkscape:zoom="22.627417"
     inkscape:cx="6.3542005"
     inkscape:cy="11.359928"
     inkscape:current-layer="g4227"
     showgrid="true"
     inkscape:document-units="px"
     inkscape:grid-bbox="true"
     inkscape:window-width="1920"
     inkscape:window-height="1020"
     inkscape:window-x="1920"
     inkscape:window-y="32"
     inkscape:window-maximized="1" />
  <metadata
     id="metadata2498">
    <rdf:RDF>
      <cc:Work
         rdf:about="">
        <dc:format>image/svg+xml</dc:format>
        <dc:type
           rdf:resource="http://purl.org/dc/dcmitype/StillImage" />
        <dc:title />
      </cc:Work>
    </rdf:RDF>
  </metadata>
  <g
     id="layer1"
     inkscape:label="Layer 1"
     inkscape:groupmode="layer"
     transform="translate(0,-39)">
    <g
       id="g4227"
       transform="translate(0.17677708,0)">
      <g
         id="g95"
         style="fill:#ffffff"
         transform="matrix(0.08569648,0,0,0.08569648,1.3232227,40.5)">
        <g
           id="g4"
           style="fill:#ffffff">
          <path
             inkscape:connector-curvature="0"
             id="path2"
             d="m 64.518,128.375 c 0,35.203 28.655,63.827 63.857,63.827 9.491,0 18.472,-2.133 26.582,-5.857 -0.571,-2.133 -0.901,-4.325 -0.901,-6.638 0,-13.817 11.174,-25.02 24.99,-25.02 2.433,0 4.746,0.36 6.938,0.991 3.965,-8.29 6.248,-17.541 6.248,-27.303 0,-35.233 -28.655,-63.857 -63.857,-63.857 -35.202,0 -63.857,28.625 -63.857,63.857 z m 143.514,0 c 0,13.126 -3.274,25.501 -8.921,36.434 3.094,4.175 4.956,9.311 4.956,14.898 0,13.817 -11.204,25.02 -25.02,25.02 -5.707,0 -10.963,-1.952 -15.168,-5.166 -10.723,5.346 -22.738,8.44 -35.503,8.44 -43.913,0 -79.656,-35.713 -79.656,-79.626 0,-43.943 35.743,-79.656 79.656,-79.656 43.913,0 79.656,35.713 79.656,79.656 z"
             style="fill:#ffffff" />
        </g>
        <g
           id="g12"
           style="fill:#ffffff">
          <path
             inkscape:connector-curvature="0"
             id="path10"
             d="m 128.375,148.109 c 10.873,0 19.734,-8.861 19.734,-19.734 0,-10.903 -8.861,-19.764 -19.734,-19.764 -10.903,0 -19.764,8.861 -19.764,19.764 0,10.874 8.861,19.734 19.764,19.734 z m 0,-55.297 c 19.584,0 35.533,15.949 35.533,35.563 0,19.584 -15.949,35.533 -35.533,35.533 -19.614,0 -35.563,-15.949 -35.563,-35.533 0,-19.613 15.95,-35.563 35.563,-35.563 z"
             style="fill:#ffffff" />
        </g>
        <g
           id="g20"
           style="fill:#ffffff">
          <path
             inkscape:connector-curvature="0"
             id="path18"
             d="m 43.463,64.518 c 12.705,0 23.038,-10.333 23.038,-23.038 0,-12.705 -10.333,-23.038 -23.038,-23.038 -12.705,0 -23.038,10.333 -23.038,23.038 0,12.705 10.332,23.038 23.038,23.038 z M 128.375,0 C 199.141,0 256.72,57.58 256.72,128.375 256.72,199.141 199.14,256.72 128.375,256.72 57.58,256.721 0,199.141 0,128.375 0,106.539 5.497,85.994 15.168,68.002 8.65,61.034 4.626,51.723 4.626,41.48 4.626,20.064 22.047,2.643 43.463,2.643 54.066,2.643 63.677,6.908 70.676,13.817 88.037,5.016 107.62,0 128.375,0 Z m 112.547,128.375 c 0,-62.085 -50.491,-112.576 -112.546,-112.576 -17.511,0 -34.121,4.025 -48.899,11.204 1.802,4.475 2.823,9.371 2.823,14.478 0,21.416 -17.421,38.837 -38.837,38.837 -5.437,0 -10.573,-1.141 -15.289,-3.154 -7.87,15.379 -12.375,32.77 -12.375,51.212 0,62.055 50.491,112.546 112.576,112.546 62.055,0 112.547,-50.492 112.547,-112.547 z"
             style="fill:#ffffff" />
        </g>
      </g>
    </g>
  </g>
</svg>
