<?xml version="1.0" encoding="UTF-8" standalone="no"?>
<!-- Created with Inkscape (http://www.inkscape.org/) -->

<svg
   width="210mm"
   height="297mm"
   viewBox="0 0 210 297"
   version="1.1"
   id="svg1"
   sodipodi:docname="indi-allsky_logo_alt4.svg"
   inkscape:version="1.1.2 (0a00cf5339, 2022-02-04)"
   inkscape:export-filename="/home/aaron/Downloads/logo_outline_pre.png"
   inkscape:export-xdpi="96"
   inkscape:export-ydpi="96"
   xmlns:inkscape="http://www.inkscape.org/namespaces/inkscape"
   xmlns:sodipodi="http://sodipodi.sourceforge.net/DTD/sodipodi-0.dtd"
   xmlns="http://www.w3.org/2000/svg"
   xmlns:svg="http://www.w3.org/2000/svg">
  <sodipodi:namedview
     id="namedview1"
     pagecolor="#ffffff"
     bordercolor="#000000"
     borderopacity="0.25"
     inkscape:showpageshadow="2"
     inkscape:pageopacity="0.0"
     inkscape:pagecheckerboard="0"
     inkscape:deskcolor="#d1d1d1"
     inkscape:document-units="mm"
     inkscape:zoom="0.74163155"
     inkscape:cx="-76.183382"
     inkscape:cy="745.65328"
     inkscape:window-width="1920"
     inkscape:window-height="1007"
     inkscape:window-x="0"
     inkscape:window-y="0"
     inkscape:window-maximized="1"
     inkscape:current-layer="layer3"
     inkscape:pageshadow="2"
     showgrid="false" />
  <defs
     id="defs1">
    <inkscape:path-effect
       effect="lattice2"
       gridpoint0="77.794119,129.25389"
       gridpoint1="144.96845,129.25389"
       gridpoint2="77.794119,142.19093"
       gridpoint3="144.96845,142.19093"
       gridpoint4="91.806519,112.62745"
       gridpoint5="133.56586,112.26489"
       gridpoint6="94.587702,142.19093"
       gridpoint7="128.17487,142.19093"
       gridpoint8x9="110.36027,115.56178"
       gridpoint10x11="111.38128,142.19093"
       gridpoint12="77.794119,132.48815"
       gridpoint13="144.96845,132.48815"
       gridpoint14="77.794119,138.95667"
       gridpoint15="144.96845,138.95667"
       gridpoint16="94.587702,132.48815"
       gridpoint17="128.17487,132.48815"
       gridpoint18="94.587702,138.95667"
       gridpoint19="128.17487,138.95667"
       gridpoint20x21="111.38128,132.48815"
       gridpoint22x23="111.38128,138.95667"
       gridpoint24x26="77.794119,135.72241"
       gridpoint25x27="144.96845,135.72241"
       gridpoint28x30="94.587702,135.72241"
       gridpoint29x31="128.17487,135.72241"
       gridpoint32x33x34x35="111.38128,135.72241"
       id="path-effect68111"
       is_visible="true"
       lpeversion="1"
       horizontal_mirror="false"
       vertical_mirror="false"
       perimetral="true"
       live_update="true" />
    <inkscape:path-effect
       effect="lattice2"
       gridpoint0="33.876085,49.936786"
       gridpoint1="100.97,52.488832"
       gridpoint2="33.796187,65.425873"
       gridpoint3="100.97052,65.425873"
       gridpoint4="50.757299,40.579137"
       gridpoint5="84.330911,40.2237"
       gridpoint6="50.58977,65.425873"
       gridpoint7="84.176937,65.425873"
       gridpoint8x9="66.80433,39.017779"
       gridpoint10x11="67.383353,65.425873"
       gridpoint12="33.796187,55.723092"
       gridpoint13="100.97052,55.723092"
       gridpoint14="33.796187,62.191613"
       gridpoint15="100.97052,62.191613"
       gridpoint16="50.58977,55.723092"
       gridpoint17="84.176937,55.723092"
       gridpoint18="50.58977,62.191613"
       gridpoint19="84.176937,62.191613"
       gridpoint20x21="67.383353,55.723092"
       gridpoint22x23="67.383353,62.191613"
       gridpoint24x26="33.796187,58.957353"
       gridpoint25x27="100.97052,58.957353"
       gridpoint28x30="50.58977,58.957353"
       gridpoint29x31="84.176937,58.957353"
       gridpoint32x33x34x35="67.383353,58.957353"
       id="path-effect59703"
       is_visible="true"
       lpeversion="1"
       horizontal_mirror="false"
       vertical_mirror="false"
       perimetral="true"
       live_update="true" />
    <linearGradient
       id="swatch5"
       inkscape:swatch="solid">
      <stop
         style="stop-color:#000000;stop-opacity:1;"
         offset="0"
         id="stop5" />
    </linearGradient>
    <linearGradient
       id="swatch1"
       inkscape:swatch="solid">
      <stop
         style="stop-color:#000000;stop-opacity:1;"
         offset="0"
         id="stop1" />
    </linearGradient>
  </defs>
  <g
     inkscape:groupmode="layer"
     id="layer2"
     inkscape:label="Outline"
     style="display:inline">
    <ellipse
       style="display:inline;fill:#cccccc;fill-opacity:1;stroke-width:0.459307;stroke-dasharray:none"
       id="path3-6"
       ry="55.468433"
       rx="50.791027"
       cy="149.5127"
       cx="110.44185" />
    <rect
       style="display:inline;fill:#cccccc;stroke-width:0.389185;stroke-dasharray:none"
       id="rect3-3"
       width="134.36697"
       height="61.29026"
       x="42.810024"
       y="147.74361"
       ry="18.434723" />
  </g>
  <g
     inkscape:label="Logo"
     inkscape:groupmode="layer"
     id="layer1"
     style="display:inline">
    <rect
       style="fill:#000000;stroke-width:0.371108;stroke-dasharray:none"
       id="rect3"
       width="130"
       height="57.600391"
       x="45"
       y="149.15479"
       ry="17.324896" />
    <ellipse
       style="fill:#000000;fill-opacity:1;stroke-width:0.446434;stroke-dasharray:none"
       id="path3"
       ry="54.646221"
       rx="48.705521"
       cy="150.64621"
       cx="110.39986" />
    <path
       style="fill:#cccccc;fill-opacity:1;stroke-width:0.633137;stroke-dasharray:none"
       id="path5"
       sodipodi:type="arc"
       sodipodi:cx="110.93069"
       sodipodi:cy="-149.45393"
       sodipodi:rx="41.58387"
       sodipodi:ry="46.340157"
       sodipodi:start="0"
       sodipodi:end="3.1419256"
       sodipodi:arc-type="slice"
       d="m 152.51456,-149.45393 a 41.58387,46.340157 0 0 1 -20.79593,40.13432 41.58387,46.340157 0 0 1 -41.587871,-0.008 41.58387,46.340157 0 0 1 -20.78394,-40.14204 l 41.583871,0.0154 z"
       transform="scale(1,-1)"
       inkscape:export-filename="/home/aaron/Downloads/logo_dark.png"
       inkscape:export-xdpi="96"
       inkscape:export-ydpi="96" />
    <text
       xml:space="preserve"
       style="font-size:52.5624px;fill:#cccccc;fill-opacity:1;stroke-width:0.616934;stroke-dasharray:none"
       x="57.827488"
       y="195.71281"
       id="text5"
       transform="scale(0.99920494,1.0007957)"><tspan
         sodipodi:role="line"
         id="tspan5"
         style="font-style:normal;font-variant:normal;font-weight:bold;font-stretch:normal;font-size:52.5624px;font-family:'Liberation Sans';-inkscape-font-specification:'Liberation Sans Bold';fill:#cccccc;fill-opacity:1;stroke-width:0.616936"
         x="57.827488"
         y="195.71281">INDI</tspan></text>
  </g>
  <g
     inkscape:groupmode="layer"
     id="layer3"
     inkscape:label="Curve">
    <g
       aria-label="ALLSKY"
       id="text64956"
       style="font-weight:600;font-size:16.9333px;font-family:FreeSans;-inkscape-font-specification:'FreeSans Semi-Bold';stroke-width:0.264999"
       inkscape:path-effect="#path-effect68111"
       transform="matrix(1.1247198,0,0,0.92799145,-14.92148,15.530402)">
      <path
         d="m 85.627942,137.20689 c -1.506887,0.45345 -4.523516,1.27557 -4.523516,1.27557 -0.227112,1.15169 -0.731199,3.23564 -0.731199,3.23564 -0.850593,0.0414 -2.579108,0.0834 -2.579108,0.0834 0.821258,-2.32637 1.660747,-5.37628 2.488973,-9.55623 0.755043,-3.8106 1.29683,-7.59173 1.29683,-7.59173 0.828435,-1.09477 2.546017,-3.44589 2.546017,-3.44589 0.89161,2.78667 1.949162,6.50349 3.129113,11.39445 1.080676,4.47945 1.969428,8.78287 1.969428,8.78287 -0.858047,0.0535 -2.604171,0.10032 -2.604171,0.10032 -0.334264,-1.49324 -0.665163,-2.91868 -0.992367,-4.27837 z m -0.828639,-3.32235 c -0.34517,-1.33467 -0.743411,-2.79558 -1.157468,-4.22386 -0.380461,-1.31238 -0.677376,-2.26004 -0.677376,-2.26004 -0.217196,1.61914 -0.484156,3.43459 -0.772554,5.19803 -0.266791,1.63133 -0.490222,2.83075 -0.490222,2.83075 1.021054,-0.49555 2.060771,-1.01918 3.09762,-1.54488 z"
         style="stroke-width:0.265"
         id="path68080"
         inkscape:original-d="m 85.837437,139.31227 h -4.622791 l -0.829732,2.4892 h -2.590795 l 4.385725,-12.34438 h 2.810928 l 4.267191,12.34438 h -2.607728 z m -0.694265,-2.11666 -1.608664,-4.82599 -1.608663,4.82599 z" />
      <path
         d="m 92.189802,110.95357 c 0.314383,8.3837 0.909317,25.0896 0.909317,25.0896 1.985579,-0.42129 5.953964,-1.18088 5.953964,-1.18088 0.06114,2.0921 0.150818,6.18974 0.150818,6.18974 -2.811812,0.10344 -8.456486,0.27545 -8.456486,0.27545 -0.354198,-9.11008 -1.094162,-27.36807 -1.094162,-27.36807 0.835351,-1.03185 1.679577,-2.03648 2.536549,-3.00584 z"
         style="stroke-width:0.265"
         id="path68082"
         inkscape:original-d="m 93.321932,129.45709 v 10.22772 h 5.909722 v 2.11666 h -8.449717 v -12.34438 z" />
      <path
         d="m 103.2562,101.65366 c 0.158,10.88423 0.4397,32.55922 0.4397,32.55922 2.01701,-0.19049 6.03359,-0.41356 6.03359,-0.41356 0.006,2.39634 -0.0136,7.08752 -0.0136,7.08752 -2.81722,0.045 -8.47561,0.11528 -8.47561,0.11528 -0.23658,-12.53695 -0.74121,-37.68079 -0.74121,-37.68079 0.91266,-0.62706 1.83121,-1.18446 2.75716,-1.66767 z"
         style="stroke-width:0.265"
         id="path68084"
         inkscape:original-d="m 103.80364,129.45709 v 10.22772 h 5.90972 v 2.11666 h -8.44972 v -12.34438 z" />
      <path
         d="m 121.77015,114.37985 c -0.83697,-0.34698 -2.54907,-1.01381 -2.54907,-1.01381 0.0152,-4.11009 -0.86829,-6.68382 -2.67839,-7.15556 -0.72141,-0.188 -1.30289,0.17001 -1.73881,1.04194 -0.43563,0.83482 -0.66109,2.03994 -0.68145,3.58581 -0.0199,1.50981 0.14325,2.65998 0.48535,3.45769 0.34448,0.76419 0.99375,1.5036 1.95189,2.29309 0.692,0.58186 2.03616,1.69999 2.03616,1.69999 1.19463,1.0535 2.03923,2.57788 2.52543,4.42681 0.49049,1.82551 0.67497,4.20797 0.56735,7.18826 -0.13855,3.83686 -0.70704,6.79826 -1.67612,8.98487 -0.96791,2.15105 -2.24261,3.30199 -3.83062,3.30199 -1.58106,0 -2.78844,-1.16158 -3.65742,-3.52154 -0.85343,-2.34856 -1.32204,-5.7524 -1.37889,-10.17864 0.86596,0.0257 2.56773,0.0521 2.56773,0.0521 0.0186,2.22938 0.26548,3.94054 0.73322,5.12661 0.46897,1.18921 1.13569,1.79298 2.01012,1.84374 0.78143,0.0454 1.40818,-0.39038 1.88273,-1.29312 0.48601,-0.90148 0.75575,-2.16981 0.80292,-3.82739 0.0451,-1.58617 -0.10068,-2.84548 -0.44245,-3.78641 -0.3402,-0.93656 -0.95114,-1.76025 -1.82846,-2.41775 -0.59128,-0.434 -1.79759,-1.36303 -1.79759,-1.36303 -1.30967,-0.93388 -2.23954,-2.21452 -2.79139,-3.9366 -0.55007,-1.71653 -0.82181,-4.17833 -0.8016,-7.39885 0.0254,-4.04779 0.4879,-7.20387 1.41555,-9.34136 0.9389,-2.170615 2.2503,-3.119478 3.90952,-2.601765 0.48074,0.150002 0.93999,0.408038 1.377,0.765685 0.44983,0.36278 0.91809,0.95325 1.40348,1.76735 0.48592,0.77717 0.8954,1.71562 1.22726,2.79113 0.33324,1.04071 0.59028,2.40208 0.77114,4.06967 0.1944,1.63939 0.25461,3.44586 0.18541,5.43916 0,0 0,-9e-5 0,-9e-5 z"
         style="stroke-width:0.265"
         id="path68086"
         inkscape:original-d="M 120.80466,133.21628 H 118.434 q -0.13547,-1.93039 -2.5908,-1.93039 -0.98213,0 -1.55786,0.42333 -0.57573,0.4064 -0.57573,1.10067 0,0.67733 0.49106,1.01599 0.49107,0.32174 1.84573,0.59267 l 1.9304,0.37253 q 1.71026,0.33867 2.48919,1.15147 0.77893,0.79586 0.77893,2.25212 0,1.8796 -1.33773,2.9464 -1.33773,1.04986 -3.72532,1.04986 -2.37066,0 -3.69146,-1.04986 -1.30387,-1.04987 -1.4224,-3.03106 h 2.47226 q 0.0677,0.99906 0.77893,1.524 0.7112,0.52493 1.99813,0.52493 1.15147,0 1.81187,-0.44027 0.67733,-0.44026 0.67733,-1.2192 0,-0.74506 -0.52493,-1.15146 -0.52494,-0.4064 -1.79493,-0.64347 l -1.7272,-0.33866 q -1.8796,-0.3556 -2.67546,-1.1176 -0.79587,-0.762 -0.79587,-2.20133 0,-1.81186 1.2192,-2.79399 1.23613,-0.99907 3.45439,-0.99907 0.64347,0 1.23614,0.0847 0.60959,0.0847 1.28693,0.3556 0.67733,0.254 1.16839,0.67733 0.49107,0.4064 0.8128,1.15146 0.33867,0.72814 0.33867,1.69333 z" />
      <path
         d="m 126.45191,129.67818 c -0.18456,3.84157 -0.5803,11.43489 -0.5803,11.43489 -0.83951,0.002 -2.54574,-0.0711 -2.54574,-0.0711 0.5258,-12.10651 1.55145,-36.41674 1.55145,-36.41674 0.92812,0.75159 2.72804,2.32376 2.72804,2.32376 -0.24438,5.03477 -0.76104,14.99657 -0.76104,14.99657 1.08977,-2.29179 2.28702,-4.58665 3.61229,-6.68676 1.19968,-1.90111 2.14357,-3.0433 2.14357,-3.0433 1.01157,1.21711 2.93892,3.65888 2.93892,3.65888 -1.03091,0.92647 -2.20394,2.21044 -3.52948,4.1041 -1.20405,1.72009 -2.17641,3.46011 -2.17641,3.46011 0.83326,3.95303 1.76989,8.19417 2.75276,12.06429 0.90605,3.56764 1.63636,5.90328 1.63636,5.90328 -0.99978,-0.0183 -3.02849,-0.11418 -3.02849,-0.11418 -0.60368,-2.40149 -1.259,-5.21994 -2.01335,-8.72744 -0.68156,-3.169 -1.24049,-5.95048 -1.24049,-5.95048 -0.49735,0.97123 -0.99337,1.99308 -1.48809,3.06409 z"
         style="stroke-width:0.265"
         id="path68088"
         inkscape:original-d="m 125.81691,137.66974 v 4.13173 h -2.53999 v -12.34438 h 2.53999 v 5.41866 l 4.82599,-5.41866 h 2.9972 l -4.92759,5.31706 5.45252,7.02732 h -3.03106 l -4.04706,-5.45252 z" />
      <path
         d="m 141.45151,135.54938 c -0.1127,2.0558 -0.36367,6.12021 -0.36367,6.12021 -0.83188,-0.017 -2.52652,-0.0951 -2.52652,-0.0951 0.18256,-2.39355 0.52178,-7.23628 0.52178,-7.23628 -0.55932,-2.6924 -1.14196,-5.96056 -1.77719,-10.17491 -0.57519,-3.81609 -1.02777,-7.31041 -1.02777,-7.31041 0.89584,1.22124 2.5854,3.58413 2.5854,3.58413 0.29191,2.351 0.62047,4.82819 0.99462,7.28341 0.34107,2.23818 0.6298,3.83424 0.6298,3.83424 0.519,-1.20887 1.01821,-2.32659 1.57408,-3.48079 0.4892,-1.01575 0.84072,-1.68176 0.84072,-1.68176 0.73409,1.11276 2.06569,3.06495 2.06569,3.06495 -0.9106,1.31961 -2.09373,3.19244 -3.51694,6.09229 z"
         style="stroke-width:0.265"
         id="path68090"
         inkscape:original-d="m 141.05686,137.22948 v 4.57199 h -2.53999 v -4.57199 l -4.09786,-7.77239 h 2.82786 l 2.52306,5.45252 2.35373,-5.45252 h 2.84479 z" />
    </g>
  </g>
</svg>
